<?xml version="1.0" standalone="no"?>
<!DOCTYPE svg PUBLIC "-//W3C//DTD SVG 20010904//EN"
 "http://www.w3.org/TR/2001/REC-SVG-20010904/DTD/svg10.dtd">
<svg version="1.0" xmlns="http://www.w3.org/2000/svg"
 width="564.000000pt" height="230.000000pt" viewBox="0 0 564.000000 230.000000"
 preserveAspectRatio="xMidYMid meet">

<g transform="translate(0.000000,230.000000) scale(0.100000,-0.100000)"
fill="#000000" stroke="none">
<path d="M1055 2229 c-12 -19 5 -23 22 -6 16 16 16 17 1 17 -9 0 -20 -5 -23
-11z"/>
<path d="M1435 1170 c0 -591 1 -833 2 -537 2 295 2 779 0 1075 -1 295 -2 53
-2 -538z"/>
<path d="M781 2194 c-29 -21 -26 -39 9 -66 32 -23 40 -48 15 -48 -8 0 -15 5
-15 10 0 6 -7 10 -15 10 -8 0 -15 -4 -15 -9 0 -17 29 -32 57 -29 22 2 29 9 31
31 3 22 -3 31 -27 45 -17 9 -31 23 -31 30 0 14 26 16 35 2 10 -16 27 -11 23 6
-5 25 -42 35 -67 18z"/>
<path d="M150 2142 c0 -62 11 -82 45 -82 34 0 45 20 45 82 0 45 -3 58 -15 58
-12 0 -15 -13 -15 -60 0 -47 -3 -60 -15 -60 -12 0 -15 13 -15 60 0 47 -3 60
-15 60 -12 0 -15 -13 -15 -58z"/>
<path d="M260 2130 c0 -56 3 -70 15 -70 11 0 15 12 16 43 l1 42 19 -42 c31
-67 49 -57 49 27 0 56 -3 70 -15 70 -11 0 -15 -11 -15 -42 l0 -43 -20 43 c-30
67 -50 56 -50 -28z"/>
<path d="M390 2140 c0 -33 0 -63 -1 -67 0 -4 4 -9 10 -11 7 -2 11 21 11 67 0
41 -4 71 -10 71 -6 0 -10 -27 -10 -60z"/>
<path d="M436 2174 c34 -134 53 -146 78 -50 19 79 19 76 2 76 -9 0 -16 -17
-20 -45 -7 -46 -26 -63 -26 -22 0 38 -12 67 -26 67 -10 0 -13 -7 -8 -26z"/>
<path d="M550 2130 l0 -70 40 0 c22 0 40 5 40 10 0 6 -11 10 -25 10 -18 0 -25
5 -25 20 0 13 7 20 20 20 11 0 20 5 20 10 0 6 -9 10 -20 10 -13 0 -20 7 -20
20 0 15 7 20 25 20 14 0 25 5 25 10 0 6 -18 10 -40 10 l-40 0 0 -70z"/>
<path d="M650 2130 c0 -56 3 -70 15 -70 10 0 15 10 15 31 0 36 21 35 30 -1 3
-13 11 -25 17 -27 15 -5 15 106 0 125 -5 6 -25 12 -43 12 l-34 0 0 -70z m60
30 c0 -11 -7 -20 -15 -20 -8 0 -15 9 -15 20 0 11 7 20 15 20 8 0 15 -9 15 -20z"/>
<path d="M870 2130 c0 -56 3 -70 15 -70 12 0 15 14 15 70 0 56 -3 70 -15 70
-12 0 -15 -14 -15 -70z"/>
<path d="M920 2190 c0 -5 7 -10 15 -10 12 0 15 -13 15 -61 0 -81 24 -77 28 4
2 42 7 57 17 57 8 0 15 5 15 10 0 6 -20 10 -45 10 -25 0 -45 -4 -45 -10z"/>
<path d="M1020 2130 l0 -70 39 0 c22 0 43 5 46 10 4 6 -7 10 -24 10 -24 0 -31
4 -31 20 0 13 7 20 19 20 29 0 35 18 9 22 -33 4 -37 38 -4 38 14 0 28 5 31 10
4 6 -12 10 -39 10 l-46 0 0 -70z"/>
<path d="M150 1960 l0 -70 35 0 c40 0 55 20 55 73 0 40 -25 67 -63 67 -27 0
-27 -1 -27 -70z m55 0 c0 -26 -5 -45 -12 -47 -9 -3 -13 10 -13 47 0 37 4 50
13 48 7 -3 12 -22 12 -48z"/>
<path d="M260 1960 l0 -70 40 0 c22 0 40 5 40 10 0 6 -11 10 -25 10 -18 0 -25
5 -25 20 0 13 7 20 19 20 11 0 23 5 26 10 4 6 -5 10 -19 10 -19 0 -26 5 -26
20 0 15 7 20 25 20 14 0 25 5 25 10 0 6 -18 10 -40 10 l-40 0 0 -70z"/>
<path d="M410 1960 l0 -70 35 0 c19 0 35 5 35 10 0 6 -11 10 -25 10 -24 0 -25
3 -25 60 0 33 -4 60 -10 60 -6 0 -10 -30 -10 -70z"/>
<path d="M470 2026 c0 -2 9 -23 20 -47 11 -24 20 -54 20 -66 0 -13 5 -23 10
-23 6 0 10 10 10 23 0 12 9 42 20 66 24 52 24 51 5 51 -8 0 -17 -11 -21 -25
-3 -14 -10 -25 -14 -25 -4 0 -11 11 -14 25 -4 14 -13 25 -21 25 -8 0 -15 -2
-15 -4z"/>
<path d="M592 2018 c-7 -7 -12 -33 -12 -58 0 -25 5 -51 12 -58 15 -15 65 -16
73 -1 12 19 9 97 -4 113 -16 19 -52 21 -69 4z m53 -58 c0 -35 -4 -45 -17 -48
-15 -3 -18 4 -18 48 0 44 3 51 18 48 13 -3 17 -13 17 -48z"/>
<path d="M700 1960 c0 -76 17 -96 22 -27 l4 42 19 -42 c28 -66 45 -56 45 27 0
76 -17 97 -22 28 l-3 -43 -19 43 c-28 66 -46 55 -46 -28z"/>
<path d="M875 1865 c-61 -14 -142 -67 -176 -113 l-24 -33 -125 5 c-154 6 -226
-12 -326 -80 -86 -59 -114 -64 -154 -30 -35 29 -50 33 -50 13 0 -24 35 -47 81
-53 37 -5 55 0 114 30 67 34 105 45 105 29 0 -19 -62 -114 -83 -127 -12 -7
-38 -17 -58 -20 -33 -6 -36 -10 -48 -56 -11 -44 -11 -54 3 -75 9 -13 16 -40
16 -60 l0 -35 478 2 477 3 3 43 c3 35 -1 46 -20 62 -13 11 -28 19 -35 20 -11
0 -76 73 -107 121 -18 28 -19 26 51 90 10 9 26 27 36 40 11 16 26 23 45 21 21
-1 31 5 44 29 l18 30 -45 55 c-25 30 -45 58 -45 63 0 13 -69 41 -98 40 -15 -1
-50 -7 -77 -14z m-443 -402 c22 -22 38 -47 38 -60 0 -15 9 -27 25 -35 14 -6
25 -15 25 -20 0 -4 -67 -8 -150 -8 -82 0 -150 4 -150 8 0 5 -12 14 -26 20 -18
9 -24 19 -22 35 3 19 11 23 58 28 58 6 121 31 141 55 16 20 18 19 61 -23z
m208 22 c33 -17 36 -31 19 -69 -10 -20 -9 -30 5 -51 16 -25 16 -25 -12 -25
-15 0 -33 5 -39 11 -5 5 -25 18 -44 27 -28 14 -35 24 -41 61 -4 24 -5 48 -2
52 9 14 83 10 114 -6z m294 -72 c21 -19 55 -42 75 -51 36 -17 35 -17 -102 -20
-86 -2 -142 1 -150 8 -6 6 -21 17 -31 24 -19 13 -19 14 8 47 57 68 117 66 200
-8z"/>
<path d="M2408 1760 c-123 -22 -230 -80 -318 -171 -44 -47 -118 -165 -108
-174 2 -2 17 22 33 53 43 83 145 182 230 224 108 54 210 73 313 58 93 -13 167
-41 249 -96 53 -35 60 -38 33 -14 -100 90 -297 145 -432 120z"/>
<path d="M2368 1705 c-93 -23 -177 -72 -243 -139 -33 -34 -67 -75 -75 -91 -8
-17 -22 -41 -31 -55 -37 -58 -51 -240 -24 -339 47 -180 195 -323 376 -366 256
-60 522 92 599 343 42 134 20 305 -52 418 -35 54 -113 144 -126 144 -4 0 -23
11 -42 23 -96 65 -264 92 -382 62z m281 -33 c23 -12 47 -22 54 -22 24 0 131
-88 169 -138 174 -229 124 -551 -111 -706 -87 -58 -148 -78 -252 -84 -258 -14
-480 176 -513 439 -13 102 30 267 83 320 14 14 26 29 27 34 2 19 92 97 148
126 90 48 138 59 252 55 80 -2 110 -7 143 -24z"/>
<path d="M2407 1460 c-220 -55 -305 -315 -157 -483 54 -62 111 -89 195 -95
102 -6 164 16 231 82 66 67 88 129 82 230 -6 83 -29 134 -85 188 -68 66 -180
99 -266 78z m195 -47 c163 -92 193 -307 63 -438 -54 -54 -116 -79 -195 -79
-81 0 -143 26 -199 84 -147 152 -80 392 129 461 50 17 146 3 202 -28z"/>
<path d="M2434 1340 c-40 -16 -54 -49 -54 -126 0 -76 -12 -99 -47 -92 -15 3
-19 15 -21 66 -3 59 -5 63 -25 60 -20 -3 -22 -8 -21 -66 1 -77 23 -106 80
-106 44 0 74 31 74 76 0 19 4 28 13 26 8 -3 13 -32 15 -86 l3 -82 59 0 c53 0
60 2 60 20 0 16 -7 20 -35 20 l-36 0 3 67 c2 42 8 68 16 71 9 3 12 -12 12 -52
l0 -56 53 0 c29 0 58 5 65 12 13 13 16 60 5 72 -4 4 -6 22 -4 41 3 41 -18 55
-85 55 -35 0 -54 -6 -70 -21 -31 -29 -64 -18 -64 22 0 25 5 30 31 36 34 7 49
30 28 44 -17 11 -27 10 -55 -1z m169 -135 c1 -5 -6 -11 -15 -13 -11 -2 -18 3
-18 13 0 17 30 18 33 0z m5 -72 c2 -8 -5 -13 -17 -13 -12 0 -21 6 -21 16 0 18
31 15 38 -3z"/>
<path d="M3010 1475 c19 -19 36 -35 39 -35 3 0 -10 16 -29 35 -19 19 -36 35
-39 35 -3 0 10 -16 29 -35z"/>
<path d="M2981 1442 c166 -351 -99 -762 -491 -762 -174 0 -323 77 -444 230
l-27 35 18 -33 c27 -51 136 -148 203 -182 82 -42 160 -60 253 -60 154 0 278
52 388 161 160 159 204 401 112 610 -12 26 -25 49 -30 52 -5 3 3 -20 18 -51z"/>
<path d="M3232 1170 c2 -159 7 -290 11 -290 4 0 88 0 187 0 l180 0 0 50 0 50
-135 0 -134 0 1 238 1 237 -57 3 -58 3 4 -291z"/>
<path d="M5238 1407 c-57 -51 -58 -54 -58 -106 l0 -53 60 52 60 52 0 -236 0
-236 55 0 55 0 0 290 0 290 -57 0 c-56 -1 -60 -3 -115 -53z"/>
<path d="M4140 1295 c-84 -38 -117 -109 -108 -235 9 -121 65 -180 170 -180 67
0 119 20 148 57 46 59 50 230 7 295 -44 65 -146 94 -217 63z m113 -95 c20 -16
27 -33 32 -75 14 -109 -37 -184 -102 -153 -41 20 -54 53 -51 132 3 60 7 71 31
92 34 29 56 30 90 4z"/>
<path d="M4653 1299 c-18 -5 -35 -14 -38 -19 -9 -15 -25 -12 -25 5 0 11 -12
15 -45 15 l-45 0 0 -210 0 -210 50 0 50 0 0 149 0 150 26 20 c31 24 43 26 78
10 37 -17 46 -57 46 -200 l0 -129 51 0 51 0 -4 163 c-3 174 -13 210 -61 241
-30 20 -95 27 -134 15z"/>
<path d="M3600 1293 c0 -4 32 -93 70 -197 64 -172 69 -193 59 -223 -14 -43
-35 -63 -65 -63 -22 0 -24 -4 -24 -46 l0 -47 52 6 c35 5 60 14 75 30 15 14 59
118 118 277 52 140 95 258 95 262 0 5 -23 8 -52 6 l-52 -3 -38 -122 c-22 -68
-42 -123 -46 -123 -4 0 -26 55 -48 123 l-40 122 -52 3 c-29 2 -52 -1 -52 -5z"/>
<path d="M1943 1210 c0 -25 2 -35 4 -22 2 12 2 32 0 45 -2 12 -4 2 -4 -23z"/>
<path d="M150 1155 l0 -35 480 0 480 0 0 35 0 35 -480 0 -480 0 0 -35z"/>
<path d="M1952 1125 c0 -11 3 -29 8 -40 11 -25 11 1 0 35 -6 20 -8 21 -8 5z"/>
<path d="M1971 1050 c-1 -17 35 -100 43 -100 3 0 -3 19 -13 43 -10 23 -20 49
-24 57 -5 13 -5 13 -6 0z"/>
<path d="M150 1005 l0 -35 478 2 477 3 3 33 3 32 -480 0 -481 0 0 -35z"/>
<path d="M147 893 c-11 -10 -8 -290 3 -368 30 -209 192 -371 406 -406 200 -32
412 79 499 263 44 92 57 186 53 373 l-3 140 -37 3 -37 3 -3 -203 c-3 -184 -6
-209 -27 -261 -32 -81 -115 -168 -199 -209 -63 -31 -73 -33 -177 -33 -104 0
-114 2 -177 33 -84 41 -167 128 -199 209 -21 52 -24 77 -27 261 l-3 202 -33 0
c-18 0 -36 -3 -39 -7z"/>
<path d="M294 886 c-4 -9 -4 -96 -2 -194 3 -165 5 -181 29 -232 37 -79 81
-125 157 -162 58 -29 76 -33 147 -33 71 0 89 4 147 33 76 37 120 83 157 162
25 53 26 62 26 245 l0 190 -35 0 -35 0 -5 -190 c-6 -214 -13 -241 -86 -305
-52 -45 -96 -61 -169 -61 -73 0 -117 16 -169 61 -73 64 -80 91 -86 305 l-5
190 -33 3 c-22 2 -34 -2 -38 -12z"/>
<path d="M447 894 c-12 -12 -8 -318 5 -355 26 -78 96 -129 173 -129 49 0 115
32 142 68 37 50 44 98 41 262 l-3 155 -35 0 -35 0 -5 -176 c-6 -196 -9 -207
-75 -229 -26 -8 -41 -8 -67 3 -60 25 -63 33 -68 226 l-5 176 -30 3 c-17 2 -34
0 -38 -4z"/>
</g>
</svg>
