<?xml version="1.0" standalone="no"?>
<!DOCTYPE svg PUBLIC "-//W3C//DTD SVG 20010904//EN"
 "http://www.w3.org/TR/2001/REC-SVG-20010904/DTD/svg10.dtd">
<svg version="1.0" xmlns="http://www.w3.org/2000/svg"
 width="559.000000pt" height="480.000000pt" viewBox="0 0 559.000000 480.000000"
 preserveAspectRatio="xMidYMid meet">

<g transform="translate(0.000000,480.000000) scale(0.100000,-0.100000)"
fill="#000000" stroke="none">
<path d="M856 4670 c-444 -467 -718 -978 -816 -1523 -101 -560 1 -1143 306
-1747 218 -432 505 -822 941 -1280 l119 -124 27 114 c15 63 28 124 29 135 2
16 -27 46 -112 120 -158 135 -426 406 -547 551 -397 479 -619 955 -695 1489
-16 115 -16 473 0 590 81 580 325 1111 769 1673 40 50 72 92 69 92 -2 0 -42
-41 -90 -90z"/>
<path d="M1300 2341 c-46 -10 -77 -27 -90 -51 -6 -11 -10 -108 -10 -240 0
-244 3 -259 62 -279 46 -16 154 -14 189 5 46 24 59 66 59 199 l0 115 -75 0
-75 0 0 -30 c0 -28 2 -30 41 -30 l41 0 -4 -95 c-2 -53 -8 -99 -15 -106 -20
-20 -100 -23 -128 -5 l-25 16 0 210 c0 238 1 240 76 240 58 0 81 -13 89 -50 6
-25 11 -30 36 -30 17 0 32 6 35 15 9 22 -28 89 -56 102 -35 16 -108 23 -150
14z"/>
<path d="M2480 2281 c0 -91 -9 -106 -72 -121 -78 -19 -127 -40 -138 -61 -13
-24 -13 -265 0 -290 20 -36 67 -51 146 -47 65 3 77 7 101 31 l28 27 3 260 3
260 -35 0 -36 0 0 -59z m-9 -434 c-13 -33 -72 -47 -110 -26 -25 14 -26 18 -29
129 -2 71 1 117 8 124 6 6 39 20 73 31 l62 20 3 -126 c1 -69 -2 -138 -7 -152z"/>
<path d="M4320 2259 l0 -40 38 3 c35 3 37 5 40 41 l3 37 -40 0 -41 0 0 -41z"/>
<path d="M370 2162 c0 -50 32 -215 51 -268 11 -29 33 -70 49 -93 l30 -41 263
0 263 0 -33 68 c-32 63 -61 182 -78 315 l-6 47 -270 0 -269 0 0 -28z"/>
<path d="M1668 2180 c-50 -9 -86 -35 -95 -68 -13 -45 -9 -274 5 -299 20 -36
69 -55 139 -55 74 0 108 17 129 67 22 54 19 65 -21 65 -32 0 -36 -3 -42 -30
-7 -36 -28 -50 -75 -50 -54 0 -70 18 -66 75 l3 50 75 11 c98 13 117 25 131 77
14 52 -3 111 -41 138 -30 20 -91 29 -142 19z m96 -63 c11 -8 18 -27 19 -51 1
-47 -21 -66 -74 -66 -21 0 -44 -3 -53 -6 -25 -9 -23 111 2 125 24 15 85 13
106 -2z"/>
<path d="M1975 2175 c-22 -8 -41 -15 -42 -15 -1 0 -9 -13 -18 -30 -12 -23 -15
-66 -15 -200 l0 -170 35 0 35 0 0 169 c0 194 3 201 75 201 72 0 75 -7 75 -201
l0 -169 35 0 35 0 0 173 c0 205 -7 226 -83 246 -59 14 -83 13 -132 -4z"/>
<path d="M2697 2180 c-49 -9 -86 -46 -94 -93 -6 -37 -6 -37 31 -37 29 0 36 4
36 20 0 33 35 60 79 60 48 0 71 -21 71 -64 0 -43 -11 -51 -94 -72 -88 -22
-117 -46 -122 -104 -9 -87 39 -132 138 -132 74 0 124 21 138 58 6 14 10 87 10
163 0 123 -2 141 -20 164 -26 33 -106 51 -173 37z m102 -352 c-44 -37 -130
-10 -128 40 1 41 17 56 80 76 l64 21 3 -60 c3 -52 0 -62 -19 -77z"/>
<path d="M3033 2180 c-17 -6 -41 -22 -52 -36 -19 -25 -21 -40 -21 -205 l0
-179 35 0 35 0 0 169 c0 201 2 206 86 199 49 -4 53 -3 59 20 3 13 3 27 0 30
-10 10 -110 11 -142 2z"/>
<path d="M3234 2171 c-57 -26 -64 -52 -64 -247 l0 -164 35 0 35 0 0 163 c0
192 5 207 74 207 72 0 76 -10 76 -203 l0 -167 34 0 35 0 3 171 c3 191 7 199
76 199 72 0 72 0 72 -195 l0 -175 35 0 35 0 0 181 0 181 -28 28 c-49 48 -163
49 -206 1 -17 -19 -18 -18 -42 4 -42 39 -107 45 -170 16z"/>
<path d="M3860 2183 c-96 -16 -110 -42 -110 -213 0 -183 20 -213 145 -213 93
0 145 38 145 108 0 22 -4 25 -35 25 -30 0 -35 -3 -35 -24 0 -31 -34 -56 -75
-56 -48 0 -75 25 -75 69 0 49 13 59 86 67 102 12 134 40 134 120 0 47 -23 89
-57 102 -36 13 -91 20 -123 15z m88 -69 c15 -10 22 -25 22 -49 0 -44 -22 -65
-68 -65 -20 0 -47 -3 -59 -6 -22 -6 -23 -4 -23 49 0 64 20 87 75 87 17 0 41
-7 53 -16z"/>
<path d="M4164 2179 c-16 -5 -41 -20 -55 -35 -23 -25 -24 -31 -27 -205 l-4
-179 36 0 36 0 0 158 c0 200 3 207 87 207 59 0 62 1 65 27 4 22 0 27 -25 32
-39 8 -75 6 -113 -5z"/>
<path d="M4580 2183 c-96 -15 -110 -42 -110 -213 0 -148 9 -179 60 -200 43
-18 140 -16 177 4 30 15 53 58 53 97 0 15 -8 19 -35 19 -28 0 -35 -4 -35 -20
0 -53 -96 -83 -133 -42 -20 22 -22 85 -4 100 7 6 37 14 67 17 77 9 109 23 125
56 29 55 11 140 -34 163 -30 15 -95 25 -131 19z m90 -73 c27 -27 26 -76 -2
-94 -13 -7 -47 -16 -75 -18 l-53 -5 0 50 c0 33 6 57 17 69 23 25 87 24 113 -2z"/>
<path d="M4920 2183 c0 -5 7 -52 15 -106 22 -147 47 -219 98 -289 l21 -28 262
0 263 0 -29 63 c-37 78 -57 156 -72 275 l-12 92 -273 0 c-150 0 -273 -3 -273
-7z"/>
<path d="M4320 1970 l0 -210 35 0 35 0 0 210 0 210 -35 0 -35 0 0 -210z"/>
<path d="M2110 1575 c0 -41 -2 -45 -25 -45 -18 0 -25 -5 -25 -20 0 -15 7 -20
25 -20 25 0 25 -1 25 -85 0 -72 3 -88 20 -105 24 -24 90 -28 90 -5 0 9 -9 15
-23 15 -38 0 -47 19 -47 102 l0 78 35 0 c28 0 35 4 35 20 0 16 -7 20 -35 20
-35 0 -35 0 -35 45 0 38 -3 45 -20 45 -17 0 -20 -7 -20 -45z"/>
<path d="M4130 1470 c0 -147 1 -152 25 -175 30 -31 85 -35 85 -6 0 13 -7 19
-26 19 -15 0 -30 6 -35 13 -5 8 -9 78 -9 157 0 135 -1 142 -20 142 -19 0 -20
-7 -20 -150z"/>
<path d="M2470 1580 c0 -15 7 -20 25 -20 18 0 25 5 25 20 0 15 -7 20 -25 20
-18 0 -25 -5 -25 -20z"/>
<path d="M1222 1514 c-20 -14 -22 -23 -22 -125 0 -102 1 -109 20 -109 19 0 20
7 20 105 l0 105 27 6 c49 13 58 -3 61 -115 2 -93 4 -101 22 -101 19 0 20 7 20
105 0 92 -3 108 -20 125 -25 25 -95 27 -128 4z"/>
<path d="M1665 1505 c-14 -13 -25 -31 -25 -40 0 -24 36 -17 48 10 22 49 105
21 86 -29 -3 -9 -30 -23 -60 -32 -30 -9 -58 -24 -64 -34 -29 -53 13 -110 80
-110 30 0 47 6 65 25 22 22 25 32 25 105 0 73 -3 83 -25 105 -18 19 -35 25
-65 25 -30 0 -47 -6 -65 -25z m115 -127 c0 -60 -26 -87 -69 -73 -45 14 -33 62
21 81 46 17 48 17 48 -8z"/>
<path d="M2480 1405 c0 -118 1 -125 20 -125 19 0 20 7 20 125 0 118 -1 125
-20 125 -19 0 -20 -7 -20 -125z"/>
<path d="M2822 1514 c-20 -14 -22 -23 -22 -114 0 -95 1 -100 25 -116 33 -21
113 -14 132 12 8 11 13 49 13 106 0 75 -3 91 -20 108 -25 25 -95 27 -128 4z
m96 -26 c7 -7 12 -43 12 -90 0 -69 -2 -79 -21 -89 -16 -8 -28 -8 -45 0 -23 10
-24 16 -24 95 0 58 4 86 13 89 22 10 53 7 65 -5z"/>
<path d="M3260 1510 c-17 -17 -20 -33 -20 -125 0 -98 1 -105 20 -105 18 0 20
8 22 101 3 112 12 128 61 115 l27 -6 0 -105 c0 -98 1 -105 20 -105 19 0 20 7
20 109 0 102 -2 111 -22 125 -33 23 -103 21 -128 -4z"/>
<path d="M3712 1513 c-11 -10 -23 -28 -27 -40 -5 -20 -3 -23 19 -23 19 0 26 5
26 20 0 41 80 37 88 -4 5 -26 -15 -44 -58 -51 -55 -9 -72 -25 -73 -69 -1 -29
5 -43 22 -57 31 -26 91 -25 125 2 25 19 26 25 26 110 0 76 -3 92 -20 109 -26
26 -99 27 -128 3z m108 -153 c0 -45 -25 -66 -67 -56 -20 6 -24 12 -21 38 2 26
9 34 38 44 50 18 50 18 50 -26z"/>
<path d="M4500 1510 c-17 -17 -20 -33 -20 -107 0 -94 3 -104 37 -122 53 -28
126 -4 135 44 4 21 1 25 -18 25 -17 0 -24 -6 -24 -20 0 -24 -40 -36 -69 -20
-27 14 -28 56 -2 70 11 5 32 10 46 10 49 0 65 16 65 65 0 34 -5 47 -22 59 -33
23 -103 21 -128 -4z m94 -16 c19 -7 22 -63 4 -68 -7 -3 -28 -7 -45 -10 -32 -5
-33 -4 -33 27 0 49 28 69 74 51z"/>
<path d="M1258 1030 c24 -100 21 -303 -6 -405 l-22 -80 117 -111 c137 -130
131 -132 132 41 2 221 -72 435 -199 578 l-38 42 16 -65z"/>
</g>
</svg>
